<svg width="145" height="37" viewBox="0 0 145 37" fill="none" xmlns="http://www.w3.org/2000/svg">
<path fill-rule="evenodd" clip-rule="evenodd" d="M21.7808 18.4668C21.7808 12.4872 21.7808 6.50938 21.7808 0.529794C21.7808 0.0175081 21.7879 0.0105144 22.3195 0.0105144C24.1952 0.0105144 26.0727 -0.0139634 27.9484 0.0157597C32.5264 0.0891932 36.3537 3.31677 37.1909 7.65459C37.3234 8.34347 37.3887 9.05333 37.3905 9.75444C37.4064 15.6396 37.4011 21.5265 37.3993 27.4117C37.3975 31.4593 34.916 35.0138 31.1081 36.4108C30.0501 36.799 28.9463 36.9843 27.8194 36.993C26.0126 37.0053 24.2075 36.9965 22.4007 36.9965C21.7808 36.9965 21.7808 36.9965 21.7808 36.3671C21.7808 30.4015 21.7808 24.4342 21.7808 18.4668ZM29.2112 16.6327C27.1129 16.5855 25.4404 18.3287 25.4121 20.2887C25.3838 22.3238 27.0617 23.9586 28.941 24.0635C31.1982 24.1876 32.9255 22.3623 32.9273 20.4006C32.929 18.3217 31.3253 16.6694 29.2112 16.6327Z" fill="white"/>
<path fill-rule="evenodd" clip-rule="evenodd" d="M18.0506 18.507C18.0506 24.4988 18.0506 30.4924 18.0506 36.4842C18.0506 36.951 18.0011 37 17.5278 37C14.958 36.9982 12.3899 36.9982 9.82008 36.9982C7.19198 36.9982 4.89062 36.145 2.98135 34.3511C1.5631 33.0188 0.646438 31.3823 0.249043 29.4818C0.13424 28.9293 0.0423978 28.361 0.0406316 27.798C0.026502 21.6087 -0.0547432 15.4175 0.0635922 9.22986C0.137773 5.35012 2.14771 2.54392 5.68364 0.854946C6.9871 0.23251 8.38769 0.00346725 9.83068 0.00696408C12.3881 0.0139577 14.9456 0.00696408 17.5031 0.00696408C18.0329 0.00696408 18.0506 0.0244483 18.0506 0.562961C18.0506 6.54429 18.0506 12.5256 18.0506 18.507ZM14.9986 33.9787C14.9986 23.6456 14.9986 13.3351 14.9986 3.002C14.8467 3.002 14.7195 3.002 14.5906 3.002C13.0187 3.002 11.4468 2.99151 9.8766 3.009C9.3538 3.01424 8.82394 3.0562 8.30998 3.14887C5.36396 3.67689 3.05907 6.41666 3.0573 9.38372C3.05377 15.4787 3.03787 21.5737 3.0679 27.6687C3.07673 29.4888 3.83443 31.0309 5.18381 32.2722C6.47843 33.4647 8.03798 33.9892 9.78652 33.9962C11.4167 34.0032 13.0469 33.9979 14.6771 33.9962C14.7796 33.9979 14.882 33.9874 14.9986 33.9787Z" fill="white"/>
<path fill-rule="evenodd" clip-rule="evenodd" d="M59.6976 17.4771C60.7414 17.4771 61.7234 17.4614 62.7037 17.4963C62.8344 17.5016 63.0216 17.7551 63.0675 17.9247C63.9789 21.2782 64.8743 24.6351 65.8175 28.1617C65.9835 27.6669 66.1142 27.3189 66.2202 26.9623C67.1033 23.9725 67.9934 20.9844 68.85 17.9876C68.9666 17.5803 69.122 17.4369 69.5406 17.4666C70.0405 17.5033 70.5474 17.5103 71.0454 17.4666C71.5294 17.4247 71.7484 17.5977 71.8826 18.0611C72.7922 21.21 73.7283 24.3536 74.6573 27.4973C74.7121 27.6826 74.7739 27.8662 74.8798 28.1967C75.1112 27.3871 75.3126 26.714 75.4945 26.0374C76.2257 23.3098 76.9463 20.5805 77.6916 17.8583C77.734 17.7061 77.9583 17.4998 78.1032 17.4963C79.064 17.4631 80.0266 17.4789 81.081 17.4789C80.8885 18.1887 80.7207 18.8461 80.5335 19.4965C79.3395 23.6508 78.1367 27.8015 76.9551 31.9592C76.8421 32.3544 76.6655 32.4925 76.2539 32.4785C75.4115 32.4488 74.5655 32.4488 73.723 32.4768C73.2903 32.4908 73.0907 32.3509 72.9724 31.9243C72.1528 28.9747 71.3051 26.0304 70.4661 23.086C70.4449 23.0126 70.422 22.9409 70.3566 22.7206C70.0793 23.6613 69.8373 24.469 69.6042 25.2803C68.9684 27.5025 68.329 29.723 67.7144 31.9488C67.6049 32.3421 67.4424 32.4943 67.015 32.4785C66.1319 32.4436 65.247 32.4645 64.3639 32.4698C64.0848 32.4715 63.9011 32.4453 63.8022 32.0991C62.4564 27.3522 61.0894 22.6122 59.7311 17.8687C59.7029 17.7761 59.7117 17.6747 59.6976 17.4771Z" fill="white"/>
<path fill-rule="evenodd" clip-rule="evenodd" d="M128.265 17.4771C128.265 19.2745 128.281 20.9809 128.254 22.6874C128.246 23.2049 128.352 23.42 128.943 23.4078C130.812 23.3675 132.681 23.3693 134.549 23.406C135.15 23.4182 135.296 23.2084 135.284 22.6507C135.247 21.1401 135.263 19.6277 135.259 18.117C135.259 17.923 135.28 17.7289 135.295 17.5068C136.322 17.5068 137.32 17.5068 138.375 17.5068C138.375 22.4636 138.375 27.4204 138.375 32.4261C137.359 32.4261 136.347 32.4261 135.27 32.4261C135.27 30.4853 135.27 28.5464 135.27 26.5654C132.93 26.5654 130.651 26.5654 128.304 26.5654C128.304 28.4921 128.304 30.4276 128.304 32.4541C127.265 32.4541 126.292 32.4698 125.323 32.4296C125.233 32.4261 125.088 32.0694 125.086 31.8753C125.07 29.6479 125.075 27.4204 125.077 25.1911C125.077 22.8046 125.086 20.418 125.068 18.0296C125.065 17.6257 125.167 17.4579 125.602 17.4701C126.462 17.4946 127.322 17.4771 128.265 17.4771Z" fill="white"/>
<path fill-rule="evenodd" clip-rule="evenodd" d="M44.0314 31.211C44.4853 30.4032 44.9463 29.5815 45.3861 28.7982C46.4069 29.1461 47.3483 29.5325 48.325 29.7843C49.9764 30.2109 51.649 30.2459 53.3039 29.7528C53.6042 29.6636 53.9133 29.5308 54.157 29.3402C55.1885 28.5342 55.0525 27.368 53.8144 26.9484C52.7635 26.5917 51.6561 26.3889 50.561 26.179C48.8973 25.8591 47.207 25.6178 45.7464 24.6859C43.8159 23.455 43.5828 20.8289 45.2483 19.2606C46.8626 17.7412 48.8619 17.3181 50.9991 17.3058C52.8818 17.2936 54.6798 17.7237 56.4478 18.3147C56.5379 18.3444 56.612 18.4178 56.7251 18.4895C56.3718 19.3392 56.0257 20.1732 55.6972 20.9653C54.5791 20.6785 53.5194 20.3114 52.4279 20.154C51.0838 19.9599 49.7097 19.9005 48.3974 20.4198C47.8693 20.6296 47.4349 20.9338 47.4137 21.5632C47.3925 22.2154 47.8464 22.5616 48.3762 22.7032C49.5826 23.0284 50.8207 23.2365 52.027 23.5564C53.2368 23.8764 54.4573 24.1998 55.6177 24.6597C57.0942 25.2436 57.9685 26.3382 57.9632 27.9939C57.9579 29.6706 57.2973 30.9785 55.7855 31.8212C54.5509 32.5101 53.1909 32.7216 51.8168 32.8248C49.2346 33.0189 46.7637 32.5415 44.4076 31.475C44.3175 31.4348 44.231 31.3858 44.1462 31.3334C44.1162 31.3124 44.0932 31.2757 44.0314 31.211Z" fill="white"/>
<path fill-rule="evenodd" clip-rule="evenodd" d="M121.67 20.5753C120.854 21.2782 120.068 21.9531 119.234 22.6699C118.237 21.1715 116.843 20.3637 115.066 20.3585C113.784 20.355 112.643 20.8148 111.717 21.738C109.851 23.5983 109.828 26.3416 111.717 28.2229C112.809 29.3104 114.158 29.7825 115.711 29.5709C117.217 29.3663 118.372 28.5831 119.231 27.305C120.065 28.0201 120.85 28.6932 121.631 29.3628C120.485 31.6131 117.168 33.2723 114.227 32.9349C110.013 32.4523 107.339 29.3017 106.995 25.8905C106.599 21.9653 108.914 18.5052 112.569 17.3757C115.986 16.3214 119.967 17.7009 121.67 20.5753Z" fill="white"/>
<path fill-rule="evenodd" clip-rule="evenodd" d="M99.9511 32.4383C98.7978 32.4383 97.761 32.4383 96.6536 32.4383C96.6536 28.5289 96.6536 24.6456 96.6536 20.689C95.0128 20.689 93.4391 20.689 91.8425 20.689C91.8425 19.5945 91.8425 18.5734 91.8425 17.5121C96.0919 17.5121 100.301 17.5121 104.577 17.5121C104.577 18.5437 104.577 19.5805 104.577 20.668C103.065 20.668 101.546 20.668 99.9511 20.668C99.9511 24.6002 99.9511 28.4817 99.9511 32.4383Z" fill="white"/>
<path fill-rule="evenodd" clip-rule="evenodd" d="M88.1175 32.4681C87.2079 32.4681 86.3107 32.4698 85.4117 32.4663C85.2351 32.4663 85.0585 32.4488 84.836 32.4383C84.836 27.4588 84.836 22.5073 84.836 17.5156C85.9169 17.5156 86.9925 17.5156 88.1158 17.5156C88.1175 22.4724 88.1175 27.4414 88.1175 32.4681Z" fill="white"/>
<path fill-rule="evenodd" clip-rule="evenodd" d="M130.485 9.51485C130.367 7.41326 132.22 5.2697 134.731 5.29068C137.098 5.30991 139.002 7.07931 138.998 9.52534C138.995 12.1025 136.93 13.7513 134.721 13.7548C132.35 13.76 130.485 11.8822 130.485 9.51485ZM134.698 7.07581C133.336 7.0898 132.28 8.19305 132.29 9.58479C132.301 10.9048 133.424 11.9854 134.768 11.9696C136.084 11.9556 137.229 10.8069 137.213 9.5166C137.195 8.18081 136.042 7.06008 134.698 7.07581Z" fill="white"/>
<path fill-rule="evenodd" clip-rule="evenodd" d="M109.51 10.674C109.51 8.88187 109.51 7.25585 109.51 5.54065C109.992 5.54065 110.449 5.50218 110.891 5.56513C111.011 5.58261 111.168 5.90432 111.17 6.0879C111.189 8.11432 111.182 10.1407 111.182 12.1689C111.182 12.5833 111.182 12.9994 111.182 13.5099C110.67 13.5099 110.197 13.5397 109.729 13.4924C109.573 13.4767 109.409 13.2861 109.298 13.1393C108.111 11.5727 106.935 10.0009 105.645 8.28217C105.645 10.1128 105.645 11.7807 105.645 13.4785C105.054 13.4785 104.541 13.4785 103.994 13.4785C103.994 10.8523 103.994 8.2402 103.994 5.5389C104.476 5.5389 104.953 5.51442 105.423 5.55289C105.564 5.56513 105.718 5.72773 105.818 5.85711C106.896 7.25934 107.963 8.67032 109.033 10.0795C109.155 10.2369 109.28 10.3873 109.51 10.674Z" fill="white"/>
<path fill-rule="evenodd" clip-rule="evenodd" d="M65.6497 5.54421C66.1778 5.54421 66.6405 5.50225 67.0874 5.56344C67.2834 5.58967 67.4918 5.79423 67.6261 5.96907C68.7176 7.38879 69.7932 8.82074 70.8741 10.2492C70.9394 10.3366 71.0119 10.4188 71.1955 10.6426C71.1955 9.19665 71.1955 7.91681 71.1955 6.63697C71.1955 5.53197 71.1955 5.53197 72.3012 5.53547C72.4584 5.53547 72.6156 5.53547 72.8134 5.53547C72.8134 8.19131 72.8134 10.8052 72.8134 13.4733C72.0433 13.5013 71.3015 13.7128 70.7134 12.8019C69.832 11.4364 68.7811 10.1793 67.8009 8.87669C67.6826 8.71933 67.5554 8.56897 67.3364 8.29272C67.3364 10.1006 67.3364 11.7703 67.3364 13.3981C67.2322 13.461 67.2004 13.496 67.1668 13.4995C65.6497 13.5799 65.6497 13.5799 65.6497 12.0868C65.6497 9.93973 65.6497 7.79442 65.6497 5.54421Z" fill="white"/>
<path fill-rule="evenodd" clip-rule="evenodd" d="M50.1866 5.56339C50.7871 5.56339 51.2834 5.56339 51.8256 5.56339C51.8256 8.20176 51.8256 10.8279 51.8256 13.5082C51.4583 13.5082 51.0944 13.5554 50.75 13.4925C50.4904 13.4453 50.1742 13.3211 50.0223 13.127C48.9238 11.7126 47.8623 10.2701 46.7867 8.83993C46.6719 8.68607 46.5412 8.54445 46.3292 8.29267C46.3292 10.0953 46.3292 11.7685 46.3292 13.412C46.2374 13.461 46.2038 13.4925 46.1685 13.4942C44.6549 13.5729 44.6549 13.5729 44.6549 12.0902C44.6549 10.104 44.6672 8.11608 44.646 6.12988C44.6407 5.65781 44.7944 5.55465 45.2607 5.51793C46.0237 5.45499 46.5041 5.70152 46.9439 6.3327C47.887 7.68597 48.9167 8.97805 49.9128 10.2946C49.9676 10.368 50.0365 10.4292 50.1848 10.5936C50.1866 8.85741 50.1866 7.24362 50.1866 5.56339Z" fill="white"/>
<path fill-rule="evenodd" clip-rule="evenodd" d="M117.887 13.4086C117.887 10.828 117.887 8.2333 117.887 5.53725C118.789 5.53725 119.664 5.51102 120.536 5.54599C121.17 5.57221 121.824 5.59669 122.43 5.76629C124.351 6.3013 125.448 7.94831 125.301 9.96424C125.18 11.6462 123.756 13.1831 121.914 13.3824C120.609 13.5223 119.279 13.4086 117.887 13.4086ZM119.533 9.4572C119.533 10.0744 119.54 10.6898 119.529 11.307C119.524 11.6217 119.623 11.7966 119.976 11.7808C120.517 11.7581 121.063 11.7913 121.599 11.7389C122.696 11.6305 123.574 10.6549 123.602 9.5586C123.631 8.49906 122.755 7.44477 121.684 7.30839C121.13 7.23846 120.563 7.26293 120.003 7.22622C119.62 7.20174 119.517 7.38357 119.526 7.72801C119.545 8.30499 119.533 8.88197 119.533 9.4572Z" fill="white"/>
<path fill-rule="evenodd" clip-rule="evenodd" d="M92.9004 7.05834C92.8279 7.15974 92.8085 7.17548 92.8067 7.19122C92.6319 8.73856 92.6319 8.73856 94.2073 8.73856C95.1293 8.73856 96.0512 8.73856 97.0156 8.73856C97.0156 9.22288 97.0156 9.66523 97.0156 10.1635C95.6221 10.1635 94.2444 10.1635 92.8173 10.1635C92.8173 10.7807 92.8173 11.3437 92.8173 11.9574C94.3239 11.9574 95.8005 11.9574 97.3229 11.9574C97.3229 12.4872 97.3229 12.968 97.3229 13.4803C95.2706 13.4803 93.2536 13.4803 91.196 13.4803C91.196 10.8437 91.196 8.23152 91.196 5.57743C93.2253 5.57743 95.2441 5.57743 97.3794 5.57743C97.3794 5.98306 97.4059 6.41142 97.3582 6.83279C97.3476 6.92371 97.0668 7.0461 96.9079 7.04785C95.7846 7.06708 94.6595 7.05834 93.5344 7.05834C93.3154 7.05834 93.0964 7.05834 92.9004 7.05834Z" fill="white"/>
<path fill-rule="evenodd" clip-rule="evenodd" d="M81.0792 7.27861C80.1891 7.27861 79.3925 7.27861 78.5589 7.27861C78.5589 6.69463 78.5589 6.16661 78.5589 5.58614C80.7684 5.58614 82.985 5.58614 85.2545 5.58614C85.2545 6.1194 85.2545 6.66141 85.2545 7.26986C84.4721 7.26986 83.6967 7.26986 82.8543 7.26986C82.8543 9.37146 82.8543 11.4066 82.8543 13.4767C82.2343 13.4767 81.685 13.4767 81.0792 13.4767C81.0792 11.4206 81.0792 9.39944 81.0792 7.27861Z" fill="white"/>
<path fill-rule="evenodd" clip-rule="evenodd" d="M57.9455 5.56515C58.5372 5.56515 59.0742 5.56515 59.6535 5.56515C59.6535 8.20526 59.6535 10.8156 59.6535 13.4697C59.0989 13.4697 58.5478 13.4697 57.9455 13.4697C57.9455 10.8541 57.9455 8.22799 57.9455 5.56515Z" fill="white"/>
<path fill-rule="evenodd" clip-rule="evenodd" d="M5.86203 11.0832C5.80551 9.28409 7.33504 7.6161 9.35027 7.6231C11.3143 7.63009 12.8933 9.09177 12.8809 11.1619C12.8685 13.218 11.1218 14.6273 9.31142 14.5835C7.35977 14.5363 5.84967 13.0327 5.86203 11.0832Z" fill="white"/>
<path d="M144.132 30.9587L143.558 32.4261H143.345L142.772 30.9624V32.4261H142.404V30.4261H142.862L143.452 31.9121L144.041 30.4261H144.5V32.4261H144.132V30.9587ZM142.08 30.7278H141.479V32.4261H141.106V30.7278H140.5V30.4261H142.08V30.7278Z" fill="white"/>
</svg>
