<?xml version="1.0" encoding="utf-8"?>
<!-- Generator: Adobe Illustrator 18.0.0, SVG Export Plug-In . SVG Version: 6.00 Build 0)  -->
<!DOCTYPE svg PUBLIC "-//W3C//DTD SVG 1.1//EN" "http://www.w3.org/Graphics/SVG/1.1/DTD/svg11.dtd">
<svg version="1.1" id="svg3009" xmlns="http://www.w3.org/2000/svg" xmlns:xlink="http://www.w3.org/1999/xlink" x="0px" y="0px"
	 viewBox="-28.6 -89.3 170.1 33.3" enable-background="new -28.6 -89.3 170.1 33.3" xml:space="preserve">
<polygon id="polygon3015" fill="#FFFFFF" points="122,-83.3 122,-66.3 109.5,-83.3 107.4,-83.3 107.4,-62.6 109.7,-62.6 
	109.7,-79.3 122,-62.6 124.3,-62.6 124.3,-83.3 "/>
<path id="path3017" fill="#FFFFFF" d="M95.4-83.8c-5.8,0-9.9,4.5-9.9,10.8c0,6.4,4.1,10.8,9.9,10.8c5.8,0,9.9-4.5,9.9-10.8
	C105.3-79.4,101.3-83.8,95.4-83.8 M95.4-64.3c-4.4,0-7.5-3.6-7.5-8.6c0-5.1,3.1-8.6,7.5-8.6c4.4,0,7.5,3.6,7.5,8.6
	C103-67.9,99.9-64.3,95.4-64.3"/>
<polygon id="polygon3019" fill="#FFFFFF" points="129.2,-64.6 129.2,-72.3 140.6,-72.3 140.6,-74.3 129.2,-74.3 129.2,-81.3 
	141.4,-81.3 141.4,-83.3 126.9,-83.3 126.9,-62.6 141.6,-62.6 141.6,-64.6 "/>
<polygon id="polygon3021" fill="#FFFFFF" points="79.1,-62.6 72.4,-71.6 65.8,-62.6 63.1,-62.6 71,-73.5 63.8,-83.3 66.5,-83.3 
	72.4,-75.3 78.4,-83.3 81.1,-83.3 73.8,-73.5 81.8,-62.6 "/>
<path id="path3023" fill="#FFFFFF" d="M42.6-72.7c-0.4-0.4-0.9-0.7-1.4-0.9c1.5-0.8,2.5-2.4,2.5-4.2c0-1.3-0.5-5.6-6.7-5.6h-8.4v8.9
	h-2.8c-0.4,0.5-1.2,1.6-1.5,2.1h4.3v9.7l8.4,0c4.6,0,7.4-2.3,7.4-6.1C44.4-70.3,43.8-71.7,42.6-72.7 M30.9-81.2H37
	c1.7,0,4.4,0.4,4.4,3.3c0,2.2-1.6,3.5-4.4,3.5h-6.1V-81.2z M37-64.8h-6.1v-7.5H37c2.3,0,5.1,0.6,5.1,3.6
	C42.1-65.3,38.9-64.8,37-64.8"/>
<path id="path3025" fill="#FFFFFF" d="M55.3-83.8c-5.8,0-9.9,4.5-9.9,10.8c0,6.4,4.1,10.8,9.9,10.8c5.8,0,9.9-4.5,9.9-10.8
	C65.2-79.4,61.1-83.8,55.3-83.8 M55.3-64.3c-4.4,0-7.5-3.6-7.5-8.6c0-5.1,3.1-8.6,7.5-8.6c4.4,0,7.5,3.6,7.5,8.6
	C62.9-67.9,59.8-64.3,55.3-64.3"/>
<polygon id="polygon3027" fill="#FFFFFF" points="27.4,-62.6 19.5,-73.5 26.7,-83.3 24,-83.3 18.1,-75.3 12.1,-83.3 9.4,-83.3 
	16.7,-73.5 8.7,-62.6 11.5,-62.6 18.1,-71.6 24.7,-62.6 "/>
<g>
	<path fill="#FFFFFF" d="M-11.7-84.1c2-1.2,5.2-2.8,8.8-2.7c-2.6-1.6-5.6-2.5-8.8-2.5c-3.2,0-6.2,0.9-8.8,2.5
		C-17-86.9-13.7-85.3-11.7-84.1z"/>
	<path fill="#FFFFFF" d="M-7-80c-0.1,0.1-0.1,0.2-0.2,0.3C-5-77,2-68.4,1.5-62.5c2.2-2.8,3.6-6.4,3.6-10.2c0-4.8-2.1-9.1-5.3-12.1
		C-2.9-84.3-5.5-81.9-7-80z"/>
	<path fill="#FFFFFF" d="M-16.3-79.7c-0.1-0.1-0.1-0.2-0.2-0.3c-1.5-1.9-4.1-4.3-6.8-4.8c-3.3,3-5.3,7.3-5.3,12.1
		c0,3.9,1.3,7.4,3.6,10.2C-25.5-68.4-18.5-77-16.3-79.7z"/>
	<path fill="#FFFFFF" d="M-9.9-74.3C-9.9-74.3-9.9-74.3-9.9-74.3c-0.6-0.5-1.2-1-1.9-1.6c-0.7,0.5-1.3,1-1.9,1.5l0,0
		c-4.3,3.8-9.8,8.8-9.8,13.5c3,2.9,7.1,4.7,11.7,4.7c4.5,0,8.6-1.8,11.7-4.7C-0.1-65.4-5.6-70.5-9.9-74.3z"/>
</g>
</svg>
