<svg width="141" height="36" viewBox="0 0 141 36" fill="none" xmlns="http://www.w3.org/2000/svg">
<path d="M43 8.24161V25.7584H51.191V23.0282H46.041V17.9302H49.8422V15.4658H46.041V11.0201H50.9703V8.24161H43Z" fill="white"/>
<path d="M57.8186 8.24161H52.9629V25.7584H56.0038V19.404H57.9658C60.7125 19.404 62.2575 17.3987 62.2575 13.847C62.2575 10.2228 60.6634 8.24161 57.8186 8.24161ZM56.0038 10.9235H57.7205C58.7751 10.9235 59.2165 11.6 59.2165 13.8711C59.2165 16.1181 58.7751 16.9396 57.7205 16.9396H56.0038V10.9235Z" fill="white"/>
<path d="M64.2481 8.24161V25.7584H67.2891V8.24161H64.2481Z" fill="white"/>
<path d="M74.2334 8C71.3886 8 69.5984 10.0054 69.5984 13.3638V20.9503C69.5984 24.0188 71.3396 26 74.1844 26C76.6613 26 78.1327 24.7678 78.5742 21.8685L76.2199 21.1678C75.9501 22.8349 75.4351 23.4148 74.4296 23.4148C73.2034 23.4148 72.6639 22.4725 72.6639 20.9262V13.3638C72.6639 11.5758 73.2279 10.6819 74.4541 10.6819C75.4106 10.6819 75.9746 11.3342 76.2444 12.7597L78.5496 12.0591C78.1573 9.64295 76.5387 8 74.2334 8Z" fill="white"/>
<path d="M88.66 8C85.2512 8 83.6326 10.3195 83.6326 13.7745V20.4671C83.6326 24.2362 85.3738 26 87.9734 26C89.126 26 90.0824 25.5893 90.7936 24.8161H90.8427V25.7584H93.3196V16.9154H89.1505V19.0899H90.6465V22.2309C90.156 23.004 89.6165 23.2698 88.8317 23.2698C87.4584 23.2698 86.6736 22.4 86.6736 20.443V13.7987C86.6736 11.6242 87.3603 10.6819 88.8808 10.6819C89.8617 10.6819 90.5729 11.2376 90.9898 12.7839L93.3196 12.0832C92.8536 9.44966 91.0879 8 88.66 8Z" fill="white"/>
<path d="M98.1698 21.8201H102.045L102.78 25.7584H105.895L101.922 8.24161H98.366L94.3931 25.7584H97.4341L98.1698 21.8201ZM100.083 11.3101H100.132L101.603 19.4523H98.6112L100.083 11.3101Z" fill="white"/>
<path d="M117.555 8.24161L113.852 18.5584H113.802L110.124 8.24161H107.304V25.7584H110.05V15.4658H110.099L113.14 23.004H114.514L117.579 15.4658H117.628V25.7584H120.375V8.24161H117.555Z" fill="white"/>
<path d="M122.871 8.24161V25.7584H131.062V23.0282H125.912V17.9302H129.713V15.4658H125.912V11.0201H130.841V8.24161H122.871Z" fill="white"/>
<path d="M136.365 8C133.667 8 132.073 10.0054 132.073 12.5906C132.073 17.7369 138.106 17.8577 138.106 21.5544C138.106 22.8349 137.591 23.4389 136.463 23.4389C135.531 23.4389 134.673 22.8107 134.329 21.0711L131.926 21.796C132.368 24.502 134.28 26 136.537 26C139.283 26 141 24.2362 141 21.0953C141 15.8765 135.09 15.5383 135.09 12.3732C135.09 11.2134 135.605 10.5852 136.684 10.5852C137.665 10.5852 138.327 11.1893 138.67 12.7114L140.877 11.8899C140.264 9.52215 138.866 8 136.365 8Z" fill="white"/>
<g clip-path="url(#clip0)">
<path d="M14.0388 10.9134V7.4517C14.0388 6.90103 13.7803 6.64249 13.252 6.64249H12.3865V11.7226H13.252C13.7803 11.7226 14.0388 11.4642 14.0388 10.9134Z" fill="white"/>
<path d="M28.1901 0H2.81002C0.764396 0 0 0.76434 0 2.82111V27.6486C0 27.8845 0.0112922 28.0982 0.0337318 28.3004C0.0787559 28.7501 0.0899033 29.1884 0.505833 29.6829C0.550857 29.7279 0.977934 30.0538 0.977934 30.0538C1.20276 30.1661 1.36013 30.2449 1.61855 30.3572L14.1063 35.5947C14.7582 35.8869 15.0279 36.0106 15.5 35.9993C15.9721 36.0106 16.2418 35.8981 16.8937 35.5947L29.3815 30.3572C29.64 30.256 29.7974 30.1661 30.0221 30.0538C30.0221 30.0538 30.4491 29.7391 30.4942 29.6829C30.9101 29.1884 30.9212 28.7501 30.9663 28.3004C30.9887 28.098 31 27.8845 31 27.6486V2.82111C31 0.76434 30.247 0 28.1901 0ZM17.0848 4.78798H19.1868V18.5785H17.0848V4.78798ZM16.1856 23.4787L16.2194 23.5237L16.2531 23.5799L16.2868 23.6249L16.3206 23.5799L16.3543 23.5237L16.388 23.4787L16.4218 23.4225L16.4555 23.3775L16.4892 23.3214L16.523 23.2763L16.5567 23.2202L16.5904 23.1751L16.6129 23.1301L16.6466 23.074L16.6803 23.0289L16.7141 22.9728L16.7478 22.9277L16.7815 22.8716L16.8153 22.8266L16.849 22.7704L16.8827 22.7254L16.9164 22.6804L16.9502 22.6242L16.9839 22.5792L17.0176 22.523L17.0514 22.478L17.0851 22.4218L17.1075 22.3768L17.1413 22.3318L17.175 22.2756L17.2087 22.2306L17.2425 22.1744L17.2762 22.1294L17.3099 22.0732L17.3437 22.0282L17.3774 21.972L17.4111 21.927H18.5802V26.0967L18.3216 26.108H17.2762V23.6466L17.2425 23.6917L17.2087 23.7478L17.1413 23.8377L17.1075 23.8939L17.0401 23.9838L17.0064 24.04L16.9726 24.085L16.9389 24.13L16.9052 24.175L16.8714 24.2312L16.804 24.3211L16.7702 24.3772L16.7028 24.4671L16.669 24.5233L16.6466 24.5683L16.6129 24.6134L16.5791 24.6695L16.5117 24.7594L16.4779 24.8156L16.4442 24.8606L16.4218 24.9056L16.388 24.9506L16.3543 25.0068L16.2868 25.0967L16.2644 25.1529L16.1969 25.2428L16.1632 25.2989L16.1295 25.344H16.107L16.0733 25.2878L16.0396 25.2428L16.0058 25.1866L15.9721 25.1416L15.9384 25.0854L15.9046 25.0404L15.8709 24.9842L15.8372 24.9392L15.8034 24.883L15.781 24.838L15.7473 24.7819L15.7135 24.7368L15.6798 24.6807L15.736 24.6245L15.7022 24.5683L15.6685 24.5233L15.6348 24.4671L15.6011 24.4221L15.5673 24.366L15.5336 24.3209L15.5111 24.2872L15.4774 24.2422L15.4437 24.186L15.41 24.141L15.3762 24.0848L15.3425 24.0398L15.3088 23.9836L15.2863 23.9499L15.2526 23.8937L15.2189 23.8487L15.1851 23.7926L15.1514 23.7475L15.1177 23.6914L15.0839 23.6463V26.0964H14.0049V21.9267H15.174L15.2077 21.9717L15.2414 22.0279L15.2752 22.0729L15.3089 22.1291L15.3426 22.1741L15.3764 22.2303L15.4101 22.2753L15.4438 22.3315L15.5113 22.4214L15.545 22.4775L15.5788 22.5226L15.6125 22.5787L15.6462 22.6238L15.68 22.6799L15.7474 22.7698L15.7811 22.826L15.8149 22.871L15.8486 22.9272L15.8823 22.9722L15.9161 23.0284L15.9498 23.0734L15.9722 23.1295L16.006 23.1746L16.0284 23.2196L16.0621 23.2758L16.0959 23.3208L16.1296 23.3769L16.1633 23.422L16.1856 23.4787ZM10.2959 4.78798H13.5892C15.2976 4.78798 16.1406 5.63093 16.1406 7.35055V11.0146C16.1406 12.7342 15.2976 13.5772 13.5892 13.5772H12.3977V18.5787H10.2959V4.78798ZM4.57465 4.78798H9.25049V6.69869H6.67644V10.5987H9.14929V12.5094H6.67659V16.668H9.28422V18.5787H4.57465V4.78798ZM8.54241 25.5468L8.50868 25.5692L8.46365 25.6029L8.41863 25.6367L8.32873 25.7041L8.2837 25.7379L8.23868 25.7716L8.19365 25.8053L8.08131 25.8728L8.02514 25.9065L7.96897 25.9289L7.9128 25.9627L7.85662 25.9851L7.80045 26.0075L7.74428 26.03L7.68811 26.0524L7.63194 26.0749L7.57577 26.0973L7.5196 26.1197L7.46342 26.1422L7.40725 26.1646L7.35108 26.1759L7.29491 26.1872L7.23874 26.1985L7.18257 26.2098L7.1264 26.2211L7.05893 26.2324L7.00276 26.2437L6.9353 26.2549L6.87913 26.2662L6.81166 26.2775H6.63185L6.57568 26.2662L6.50822 26.2549L6.45205 26.2437L6.39588 26.2324L6.3397 26.2211L6.28353 26.2098L6.22736 26.1985L6.17119 26.1872L6.11502 26.1759L6.00268 26.1535L5.9465 26.131L5.89033 26.1086L5.83416 26.0862L5.77799 26.0637L5.72182 26.0413L5.66565 26.0188L5.60948 25.9964L5.5533 25.9627L5.50828 25.9402L5.45211 25.9065L5.36221 25.839L5.31718 25.8053L5.27216 25.7716L5.22713 25.7379L5.13723 25.6704L5.09221 25.6254L5.04718 25.5917L5.00216 25.5466L4.95713 25.5016L4.9234 25.4566L4.88967 25.4116L4.85594 25.3665L4.82221 25.3215L4.75474 25.2316L4.7323 25.1866L4.69857 25.1304L4.66484 25.0854L4.6424 25.0293L4.61996 24.9731L4.59752 24.9169L4.57508 24.8608L4.55264 24.8157L4.5302 24.7596L4.51891 24.7034L4.49647 24.6472L4.48518 24.5911L4.46274 24.5349L4.45145 24.4787V24.4226L4.44015 24.3664V24.3102L4.42886 24.2541V23.7707L4.44015 23.7032L4.45145 23.6471L4.46274 23.5909L4.47403 23.5347L4.49647 23.4786L4.50776 23.4224L4.5302 23.3662L4.55264 23.3101L4.57508 23.2539L4.59752 23.1977L4.61996 23.1416L4.6424 23.0854L4.66484 23.0292L4.68728 22.9731L4.72101 22.9169L4.75474 22.8719L4.77718 22.8269L4.81091 22.7818L4.84465 22.7368L4.91211 22.6469L4.94584 22.6019L4.97957 22.5569L5.0246 22.5119L5.05833 22.4668L5.14823 22.3769L5.19326 22.3432L5.23828 22.2982L5.2833 22.2645L5.50814 22.0958L5.56431 22.0621L5.62048 22.0283L5.67665 21.9946L5.73282 21.9722L5.78899 21.9497L5.84516 21.916L5.89019 21.8936L5.94636 21.8711L6.00253 21.8487L6.0587 21.8374L6.11487 21.815L6.17105 21.8037L6.22722 21.7812L6.28339 21.7699L6.33956 21.7587L6.39573 21.7474L6.4519 21.7361L6.50807 21.7248L6.56425 21.7135L6.62042 21.7022H6.8564L6.99132 21.7246H7.04749L7.10367 21.7359L7.17113 21.7472L7.2273 21.7585L7.28347 21.7698L7.33964 21.7811L7.39582 21.7924L7.45199 21.8037L7.50816 21.815L7.56433 21.8374L7.6205 21.8487L7.66553 21.8711L7.7217 21.8936L7.82289 21.9386L7.87906 21.961L7.93524 21.9948L7.99141 22.0172L8.03643 22.0509L8.0926 22.0847L8.13763 22.1184L8.1938 22.1521L8.23882 22.1858L8.37375 22.287L8.41877 22.3321L8.4638 22.3658L8.43007 22.4108L8.38504 22.4558L8.35131 22.5008L8.30629 22.5459L8.27255 22.5909L8.23882 22.6359L8.1938 22.6809L8.16007 22.726L8.12633 22.771L8.08131 22.816L8.04758 22.861L8.00255 22.906L7.96882 22.9511L7.93509 22.9961L7.89007 23.0411L7.85633 23.0861L7.81131 23.1311L7.77758 23.1762L7.73255 23.1424L7.68753 23.0974L7.5526 22.9962L7.50758 22.9625L7.46255 22.9288L7.40638 22.895L7.36136 22.8726L7.31634 22.8502L7.27131 22.8277L7.21514 22.8053L7.15897 22.7828L7.1028 22.7716L7.04663 22.7603L6.99045 22.749L6.93428 22.7377L6.86682 22.7264L6.79936 22.7151H6.67572L6.61955 22.7264L6.56338 22.7377L6.50721 22.749L6.45103 22.7603L6.39486 22.7827L6.33869 22.8051L6.29367 22.9401L6.2375 22.9625L6.14759 23.03L6.10257 23.0637L5.96764 23.1649L5.93391 23.2099L5.88889 23.2549L5.85515 23.2999L5.82142 23.345L5.78769 23.39L5.76525 23.4461L5.73152 23.4912L5.70908 23.5473L5.68664 23.6035L5.6642 23.6597L5.64176 23.7158L5.63047 23.772L5.61918 23.8282L5.60788 23.8956V24.3115L5.61918 24.3677L5.63047 24.4239L5.64176 24.48L5.6642 24.5362L5.73166 24.5138L5.7541 24.5699L5.77654 24.6261L5.81027 24.6823L5.86645 24.7722L5.90018 24.8172L5.93391 24.8622L5.97893 24.9072L6.01267 24.9522L6.2375 25.1209L6.29367 25.1433L6.34984 25.1658L6.40601 25.1882L6.46218 25.2106L6.51835 25.2331L6.57452 25.2444L6.6307 25.2557L6.68687 25.267L6.75433 25.2782H6.85553L6.92299 25.267L6.99045 25.2557L7.04663 25.2444L7.1028 25.2331L7.15897 25.2218L7.21514 25.2105L7.27131 25.1992L7.32748 25.1768L7.37251 25.1543L7.42868 25.1319L7.4737 25.1095L7.51873 25.0757V24.5138H6.68701V23.6821H8.54169V25.5468H8.54241ZM8.99207 26.0413L9.03709 25.9401L9.05953 25.8839L9.08197 25.8278L9.127 25.7266L9.14944 25.6704L9.17188 25.6142L9.19432 25.5581L9.21676 25.5243L9.2392 25.4682L9.26164 25.412L9.28407 25.3558L9.30651 25.2997L9.32895 25.2435L9.35139 25.1873L9.37383 25.1312L9.39627 25.075L9.41871 25.0188L9.44115 24.9627L9.46359 24.9065L9.50862 24.8053L9.53106 24.7491L9.5535 24.693L9.57594 24.6368L9.59838 24.5806L9.62081 24.5245L9.64325 24.4683L9.66569 24.4121L9.68813 24.356L9.71057 24.2998L9.73301 24.2436L9.75545 24.1875L9.77789 24.1313L9.80033 24.0751L9.82277 24.019L9.84521 23.9628L9.86765 23.9066L9.89009 23.8505L9.91253 23.7943L9.93497 23.7381L9.95741 23.682L9.97985 23.6258L10.0023 23.5696L10.0247 23.5135L10.0472 23.4573L10.0696 23.4011L10.092 23.345L10.1145 23.2888L10.1369 23.2326L10.1594 23.1765L10.1818 23.1203L10.2042 23.0641L10.2267 23.0079L10.2717 22.9068L10.2941 22.8506L10.3166 22.7944L10.339 22.7383L10.3615 22.6821L10.3839 22.6259L10.4063 22.5698L10.4288 22.5136L10.4512 22.4574L10.4737 22.4013L10.4961 22.3451L10.5074 22.2889L10.5298 22.2327L10.5523 22.1766L10.5747 22.1204L10.5972 22.0642L10.6196 22.0081L10.642 21.9519L10.6645 21.8957L10.6869 21.8396L10.7319 21.7384L10.7544 21.6822H11.8109L11.8334 21.7384L11.8558 21.7946L11.8782 21.8507L11.9007 21.9069L11.9231 21.9631L11.9456 22.0192L11.968 22.0754L11.9904 22.1316L12.0129 22.1877L12.0353 22.2439L12.0578 22.3001L12.0802 22.3562L12.1026 22.4124L12.1251 22.4686L12.1475 22.5247L12.17 22.5809L12.1924 22.6371L12.2148 22.6932L12.2373 22.7494L12.2597 22.8056L12.2822 22.8617L12.3046 22.9179L12.327 22.9741L12.3495 23.0302L12.3719 23.0864L12.3944 23.1426L12.4168 23.1987L12.4392 23.2549L12.4617 23.3111L12.4841 23.3672L12.5291 23.4684L12.5516 23.5246L12.574 23.5808L12.5965 23.6369L12.6189 23.6931L12.6413 23.7493L12.6638 23.8054L12.6862 23.8616L12.7087 23.9178L12.7311 23.9739L12.7535 24.0301L12.776 24.0863L12.7984 24.1424L12.8209 24.1986L12.8433 24.2548L12.8657 24.3109L12.8882 24.3671L12.9106 24.4233L12.9331 24.4794L12.9555 24.5356L12.9779 24.5918L13.0004 24.648L13.0228 24.7041L13.0452 24.7603L13.0677 24.8165L13.0901 24.8726L13.1126 24.9288L13.135 24.985L13.1574 25.0411L13.1799 25.0973L13.2023 25.1535L13.2248 25.2096L13.2472 25.2658L13.2696 25.322L13.2921 25.3781L13.3145 25.4343L13.337 25.4905L13.3594 25.5466L13.3818 25.6028L13.4043 25.659L13.4267 25.7151L13.4492 25.7713L13.4716 25.8275L13.494 25.8836L13.5165 25.9398L13.5389 25.996L13.5614 26.0521L13.6064 26.1533L13.494 26.1083H12.3813L12.3589 26.0521L12.3364 25.996L12.314 25.9398L12.2916 25.8836L12.2691 25.8275L12.2467 25.7713L12.2242 25.7151L12.2018 25.659L12.1794 25.6028L12.1569 25.5466L12.1345 25.4905L12.112 25.4343L12.0896 25.3781L12.0672 25.322L12.0447 25.2658H10.4308L10.4084 25.322L10.3859 25.3781L10.3635 25.4343L10.3185 25.5466L10.2734 25.6478L10.251 25.704L10.2286 25.7602L10.2061 25.8163L10.1837 25.8725L10.1612 25.9287L10.1388 25.9848L10.1164 26.041L10.0939 26.0972H8.96992L8.99207 26.0413ZM15.4101 33.0658L9.52034 31.0428H21.536L15.4101 33.0658ZM22.5475 26.1087H19.2205V21.939H22.5138V22.8832H20.3108V23.5688H22.2891V24.4567H20.3108V25.1647H22.5475V26.1087ZM20.277 16.1283V7.22678C20.277 5.50716 21.12 4.66421 22.8285 4.66421H23.8513C25.5598 4.66421 26.3803 5.49587 26.3803 7.20434V10.0255H24.3234V7.32797C24.3234 6.7773 24.0648 6.51875 23.5366 6.51875H23.1881C22.6374 6.51875 22.3788 6.7773 22.3788 7.32797V16.0384C22.3788 16.5891 22.6374 16.8476 23.1881 16.8476H23.5815C24.1097 16.8476 24.3683 16.5891 24.3683 16.0384V12.9139H26.4139V16.1283C26.4139 17.8479 25.5709 18.6909 23.8625 18.6909H22.8284C21.12 18.6909 20.277 17.8479 20.277 16.1283ZM26.5603 25.0298L26.4817 24.9624L26.4704 25.0185L26.4591 25.086L26.4478 25.1422L26.4254 25.1983L26.4141 25.2545L26.3916 25.3107L26.3692 25.3668L26.3467 25.4119L26.3243 25.468L26.2906 25.513L26.2568 25.5581L26.1556 25.693L26.1106 25.738L26.032 25.8166L25.987 25.8503L25.942 25.8841L25.8969 25.9065L25.8519 25.9402L25.7957 25.974L25.7396 25.9964L25.6834 26.0301L25.6272 26.0526L25.5711 26.075L25.5149 26.0974V26.0862L25.4587 26.1086L25.4025 26.1199L25.3013 26.1423L25.2452 26.1536L25.189 26.1649L25.1328 26.1762L25.0767 26.1875L25.0092 26.1988L24.953 26.2101H24.7282L24.672 26.1988H24.6046L24.5484 26.1875L24.4922 26.1762L24.4248 26.1649L24.3686 26.1536L24.3124 26.1423L24.2562 26.131L24.2001 26.1197L24.1439 26.1084L24.0877 26.0972L24.0316 26.0747L23.9754 26.0634L23.9192 26.041L23.863 26.0186L23.8069 25.9961L23.7507 25.9737L23.6945 25.9512L23.6384 25.9288L23.5822 25.9064L23.526 25.8839L23.4698 25.8615L23.4137 25.839L23.3575 25.8053L23.3125 25.7716L23.2563 25.7379L23.1214 25.6367L23.0763 25.6029L22.9864 25.5355L22.9414 25.5018L22.8964 25.4567L22.9301 25.4117L22.9752 25.3667L23.0089 25.3217L23.0539 25.2766L23.0876 25.2316L23.1214 25.1866L23.1664 25.1416L23.2001 25.0966L23.2451 25.0515L23.2789 25.0065L23.3239 24.9615L23.3914 24.8716L23.4364 24.8266L23.4701 24.7816L23.5152 24.7365L23.5489 24.6915L23.5939 24.7253L23.6501 24.759L23.6951 24.7927L23.7513 24.8264L23.7963 24.8602L23.8525 24.8939L23.8975 24.9276L23.9537 24.9501L23.9987 24.9838L24.0549 25.0062L24.111 25.0287L24.1672 25.0511L24.2234 25.0736L24.2795 25.096L24.3357 25.1184L24.3919 25.1409L24.4481 25.1633L24.5042 25.1746L24.6166 25.197L24.684 25.2083L24.7402 25.2196H24.7964L24.8638 25.2309H24.9875L25.0549 25.2196L25.1111 25.2083L25.1673 25.197L25.2235 25.1857L25.2685 25.1633L25.3135 25.1409L25.3585 25.1071L25.3923 25.0621L25.4147 25.0171L25.4371 24.9609L25.4484 24.9048V24.8935L25.4371 24.826L25.4147 24.7698L25.381 24.7248L25.2911 24.6574L25.246 24.6349L25.1899 24.6125L25.1337 24.59L25.0662 24.5563L25.0212 24.545L24.9762 24.5337L24.92 24.5113L24.8638 24.5L24.8077 24.4776L24.7515 24.4663L24.684 24.4438L24.6279 24.4325L24.5604 24.4101L24.5042 24.3988L24.4481 24.3764L24.3919 24.3651L24.3357 24.3426L24.2795 24.3202L24.2234 24.3089L24.1672 24.2865L24.111 24.264L24.0549 24.2416L23.9874 24.2192L23.9312 24.1967L23.8751 24.1743L23.8189 24.1519L23.7627 24.1181L23.7065 24.0844L23.6615 24.0507L23.6053 24.0169L23.4704 23.9157L23.4254 23.8707L23.3804 23.8257L23.3466 23.7807L23.3129 23.7357L23.2792 23.6906L23.2454 23.6456L23.2117 23.5895L23.1893 23.5444L23.1668 23.4994L23.1555 23.4432L23.1331 23.3982L23.1218 23.3421L23.1105 23.2859L23.0992 23.2297L23.0879 23.1736L23.0766 23.1061V22.9712L23.0879 22.915L23.0992 22.8588L23.1105 22.8027L23.1218 22.7465L23.1331 22.6903L23.1555 22.6342L23.1668 22.578L23.1893 22.5218L23.2117 22.4657L23.2341 22.4095L23.2679 22.3533L23.3016 22.2972L23.3691 22.2073L23.5489 22.0275L23.6388 21.96L23.6838 21.9263L23.7288 21.8926L23.785 21.8588L23.8412 21.8364L23.8973 21.8027L23.9535 21.7802L24.0097 21.7578L24.0659 21.7353L24.122 21.7129L24.1671 21.7016L24.2232 21.6903L24.2794 21.679L24.3356 21.6677L24.3917 21.6565L24.4479 21.6452L24.5041 21.6339L24.5603 21.6226L24.6164 21.6113H24.8637L24.9312 21.6226L24.9986 21.6339H25.0548L25.1223 21.6452L25.1784 21.6565L25.2459 21.6677L25.3021 21.679L25.3582 21.6903L25.4144 21.7016L25.4706 21.7129L25.5268 21.7242L25.5829 21.7466L25.6391 21.7691L25.6953 21.7804L25.7514 21.8028L25.8076 21.8252L25.8638 21.8477L25.92 21.8701L25.9761 21.8926L26.0323 21.9263L26.0773 21.9487L26.1335 21.9825L26.1897 22.0162L26.2347 22.0499L26.2909 22.0836L26.3359 22.1174L26.3809 22.1511L26.4708 22.2186L26.4371 22.2636L26.4033 22.3086L26.3696 22.3536L26.3359 22.3986L26.3022 22.4548L26.2684 22.4998L26.1672 22.6348L26.1335 22.6798L26.0998 22.7248L26.066 22.7698L26.0323 22.826L25.9986 22.871L25.9648 22.916L25.8525 23.1633L25.8188 23.2083L25.7737 23.1746L25.7176 23.1408L25.6277 23.0734L25.5715 23.0509L25.5265 23.0172L25.4703 22.9948L25.4253 22.9723L25.3691 22.9499L25.3241 22.9275L25.2679 22.905L25.2229 22.8826L25.1554 22.8601L25.0992 22.8377L25.0431 22.8153L24.9869 22.804L24.9532 22.8264L24.897 22.8151L24.8408 22.8038L24.7847 22.7925L24.7285 22.7813H24.6048L24.5374 22.7925L24.4812 22.8038L24.425 22.8151L24.38 22.8376L24.335 22.86L24.2788 22.905L24.2451 22.9612L24.2227 23.0174L24.2114 23.0735V23.0848L24.2227 23.1634L24.2451 23.2309L24.2675 23.2646L24.3126 23.3096L24.3687 23.3434L24.4137 23.3771L24.4699 23.3995L24.5374 23.422L24.6048 23.4444L24.6499 23.4557L24.6949 23.4781L24.7511 23.4894L24.8072 23.5119L24.8634 23.5232L24.9309 23.5456L24.9983 23.568L25.0658 23.5905L25.1333 23.6018L25.1894 23.6242L25.2569 23.6466L25.3131 23.6579L25.3692 23.6804L25.4254 23.7028L25.4816 23.7252L25.5378 23.7477L25.5939 23.7701L25.6501 23.7814L25.7176 23.8038L25.7737 23.8376L25.8299 23.86L25.8861 23.8937L25.9422 23.9275L25.9984 23.9612L26.0434 23.9949L26.1333 24.0624L26.1784 24.1074L26.2234 24.1524L26.3133 24.2423L26.347 24.2873L26.3808 24.3435L26.4145 24.3885L26.4482 24.4447L26.4707 24.4897L26.4931 24.5459L26.5044 24.6021L26.5157 24.6582L26.5381 24.7706L26.5494 24.8267L26.5607 24.8942V25.0298H26.5603Z" fill="white"/>
<path d="M11.7122 24.389L11.6896 24.3329L11.6671 24.2767L11.6447 24.2205L11.6223 24.1642L11.5997 24.108L11.5772 24.0519L11.5548 23.9957L11.5322 23.9395L11.5098 23.8832L11.4873 23.8271L11.4649 23.7709L11.4423 23.7147L11.4199 23.6586L11.3974 23.6023L11.3748 23.5461L11.3524 23.4899L11.33 23.4338L11.3075 23.3776L11.2849 23.3213L11.2625 23.2651L11.2401 23.2089L11.2176 23.1528L11.195 23.2089L11.1726 23.2651L11.1502 23.3213L11.1276 23.3776L11.1051 23.4338L11.0827 23.4899L11.0603 23.5461L11.0377 23.6023L11.0152 23.6586L10.9928 23.7147L10.9702 23.7709L10.9478 23.8271L10.9253 23.8832L10.9029 23.9395L10.8803 23.9957L10.8579 24.0519L10.8354 24.108L10.813 24.1642L10.7904 24.2205L10.768 24.2767L10.7455 24.3329L10.7229 24.389L10.7005 24.4452H11.6671L11.7122 24.389Z" fill="white"/>
</g>
<defs>
<clipPath id="clip0">
<rect width="31" height="36" fill="white"/>
</clipPath>
</defs>
</svg>
