<?xml version="1.0" encoding="utf-8"?>
<!-- Generator: Adobe Illustrator 21.0.0, SVG Export Plug-In . SVG Version: 6.00 Build 0)  -->
<svg version="1.1" id="Layer_1" xmlns="http://www.w3.org/2000/svg" xmlns:xlink="http://www.w3.org/1999/xlink" x="0px" y="0px"
	 viewBox="0 0 744.6 183.6" style="enable-background:new 0 0 744.6 183.6;" xml:space="preserve">
<style type="text/css">
	.st0{fill:#FFFFFF;}
</style>
<g>
	<path class="st0" d="M91.5,0C43.3,0,3.8,37.2,0,84.4l49.2,20.3c4.2-2.9,9.2-4.5,14.6-4.5c0.5,0,1,0,1.4,0l21.9-31.7
		c0-0.2,0-0.3,0-0.4c0-19.1,15.5-34.6,34.6-34.6c19.1,0,34.6,15.5,34.6,34.6c0,19.1-15.5,34.6-34.6,34.6c-0.3,0-0.5,0-0.8,0
		L89.8,125c0,0.4,0,0.8,0,1.2c0,14.3-11.7,26-26,26c-12.6,0-23.1-9-25.5-20.9L3.2,116.8c10.9,38.5,46.3,66.8,88.3,66.8
		c50.7,0,91.8-41.1,91.8-91.8C183.3,41.1,142.2,0,91.5,0z"/>
	<path class="st0" d="M57.5,139.3l-11.3-4.7c2,4.2,5.5,7.6,10,9.6c9.9,4.1,21.4-0.6,25.5-10.5c2-4.8,2-10.1,0-14.9
		c-2-4.8-5.7-8.6-10.5-10.6c-4.8-2-9.9-1.9-14.4-0.2l11.6,4.8c7.3,3.1,10.8,11.5,7.7,18.8C73.2,138.9,64.8,142.3,57.5,139.3z"/>
	<path class="st0" d="M144.8,68.1c0-12.7-10.3-23.1-23.1-23.1c-12.7,0-23.1,10.3-23.1,23.1c0,12.7,10.3,23.1,23.1,23.1
		C134.5,91.2,144.8,80.8,144.8,68.1z M104.5,68.1c0-9.6,7.8-17.3,17.3-17.3c9.6,0,17.3,7.8,17.3,17.3c0,9.6-7.8,17.3-17.3,17.3
		C112.2,85.4,104.5,77.7,104.5,68.1z"/>
	<path class="st0" d="M287.3,84.9c-13.9-5-23.3-6.8-23.3-14.5c0-6.3,5.3-9.9,13.8-9.9c7.5,0,16,2.7,22.3,7.1l8.2-14.4
		c-6.1-4.7-17.2-9-30.9-9c-19.7,0-33.4,9.8-33.4,27c0,15.2,10.3,21.7,25.3,26.7c13.1,4.3,21.2,6.4,21.2,13.4
		c0,6.1-5.3,10.2-16.5,10.2c-8.3,0-17.6-2.4-25.4-6.6l-6,16c9.6,5.8,22.1,8.5,32.4,8.5c21.2,0,36-10.5,36-29.3
		C310.9,96.4,302.3,90.2,287.3,84.9z"/>
	<polygon class="st0" points="325,62.3 353,62.3 353,137.8 372.3,137.8 372.3,62.3 400.2,62.3 400.2,45.7 325,45.7 	"/>
	<polygon class="st0" points="421.6,137.8 483.7,137.8 483.7,121.1 440.9,121.1 440.9,99.5 477.8,99.5 477.8,83 440.9,83 
		440.9,62.2 483.7,62.2 483.7,45.7 421.6,45.7 	"/>
	<path class="st0" d="M535,45.7l-34.5,92.1h20.2l6.1-17.9h36l6.2,17.9h20.9l-35.5-92.1H535z M532,104.6l12.6-36.9l12.8,36.9H532z"/>
	<polygon class="st0" points="658.9,112.2 627.9,45.7 609.5,45.7 609.5,137.8 628,137.8 628,81.8 652.8,135.1 663.6,135.1 
		688.8,81.3 688.8,137.8 707.3,137.8 707.3,45.7 688.7,45.7 	"/>
	<path class="st0" d="M736.4,54.5c0-1.9-1.1-3.6-4.4-3.6h-4.4v12.7h2v-4.9h2.6l2.5,4.9h2.4l-3-5.5C735.4,57.3,736.4,56.2,736.4,54.5
		z M731.9,56.7h-2.3v-4h2.2c1.7,0,2.3,0.7,2.3,1.9C734.2,55.8,733.4,56.7,731.9,56.7z"/>
	<path class="st0" d="M731.9,44.6c-6.8,0-12.8,4.9-12.8,12.8c0,7.9,5.9,12.8,12.8,12.8c6.8,0,12.7-4.9,12.7-12.8
		C744.6,49.4,738.7,44.6,731.9,44.6z M731.9,68.1c-5.9,0-10.6-4.2-10.6-10.8c0-6.6,4.8-10.7,10.6-10.7c5.8,0,10.6,4.1,10.6,10.7
		C742.4,64,737.7,68.1,731.9,68.1z"/>
</g>
</svg>
