<?xml version="1.0" encoding="utf-8"?>
<!-- Generator: Adobe Illustrator 18.0.0, SVG Export Plug-In . SVG Version: 6.00 Build 0)  -->
<!DOCTYPE svg PUBLIC "-//W3C//DTD SVG 1.1//EN" "http://www.w3.org/Graphics/SVG/1.1/DTD/svg11.dtd">
<svg version="1.1" id="Layer_1" xmlns="http://www.w3.org/2000/svg" xmlns:xlink="http://www.w3.org/1999/xlink" x="0px" y="0px"
	 viewBox="0 0 93.9 93.9" enable-background="new 0 0 93.9 93.9" xml:space="preserve">
<path fill="#FFFFFF" d="M82.1,0H11.9C5.5,0,0,5.5,0,11.9v70.2c0,6.4,5.5,11.9,11.9,11.9h70.2c6.4,0,11.9-5.5,11.9-11.9V11.9
	C93.9,5.5,89.4,0,82.1,0z M66.6,16.4c0-3.6,2.7-5.5,5.5-5.5h5.5c3.6,0,5.5,2.7,5.5,5.5v5.5c0,3.6-2.7,5.5-5.5,5.5h-5.5
	c-3.6,0-5.5-2.7-5.5-5.5V16.4z M47.4,32.8c7.3,0,13.7,6.4,13.7,13.7s-6.4,13.7-13.7,13.7s-13.7-6.4-13.7-13.7S40.1,32.8,47.4,32.8z
	 M83.9,76.6H83c0,3.6-2.7,5.5-6.4,5.5H17.3c-3.6,0-6.4-2.7-6.4-5.5V47.4c0-3.6,3.6-6.4,6.4-6.4H21c0.9,0,0.9,0,1.8,0.9
	c0,0.9,0.9,0.9,0.9,1.8c0,0.9,0,1.8,0,2.7c0,13.7,10.9,23.7,23.7,23.7c13.7,0,23.7-10.9,23.7-23.7c0-0.9,0-1.8,0-2.7s0-0.9,0.9-1.8
	c0-0.9,0.9-0.9,1.8-0.9h3.6c3.6,0,6.4,2.7,6.4,6.4V76.6z"/>
</svg>
