<?xml version="1.0" encoding="utf-8"?>
<!-- Generator: Adobe Illustrator 18.0.0, SVG Export Plug-In . SVG Version: 6.00 Build 0)  -->
<!DOCTYPE svg PUBLIC "-//W3C//DTD SVG 1.1//EN" "http://www.w3.org/Graphics/SVG/1.1/DTD/svg11.dtd">
<svg version="1.1" id="Shape_3_copy_3_1_" xmlns="http://www.w3.org/2000/svg" xmlns:xlink="http://www.w3.org/1999/xlink" x="0px"
	 y="0px" viewBox="3.7 186.7 599.8 419.5" enable-background="new 3.7 186.7 599.8 419.5" xml:space="preserve">
<g id="Shape_3_copy_3">
	<g>
		<path fill="#FFFFFF" d="M597.3,277.3c0,0-6.1-41.6-23.3-58.8c-23.3-23.3-49-24.5-60-25.7c-84.5-6.1-209.3-6.1-209.3-6.1l0,0
			c0,0-126.1,0-209.3,6.1c-12.2,1.2-36.7,1.2-60,25.7c-19.6,18.4-25.7,58.8-25.7,58.8S3.7,325,3.7,374v45.3C3.7,467,9.8,516,9.8,516
			s6.1,41.6,23.3,58.8C56.3,598,85.7,598,99.1,600.4c47.7,4.9,204.4,6.1,204.4,6.1s126.1,0,210.5-6.1c12.2-1.2,36.7-1.2,60-25.7
			c18.4-18.4,23.3-58.8,23.3-58.8s6.1-47.7,6.1-96.7V374C603.4,326.2,597.3,277.3,597.3,277.3z M242.4,474.3V306.6l161.6,84.5
			L242.4,474.3z"/>
	</g>
</g>
</svg>
