<?xml version="1.0" encoding="utf-8"?>
<!-- Generator: Adobe Illustrator 21.0.0, SVG Export Plug-In . SVG Version: 6.00 Build 0)  -->
<svg version="1.1" id="Layer_1" xmlns="http://www.w3.org/2000/svg" xmlns:xlink="http://www.w3.org/1999/xlink" x="0px" y="0px"
	 viewBox="0 0 356.6 290.4" style="enable-background:new 0 0 356.6 290.4;" xml:space="preserve">
<style type="text/css">
	.st0{fill:#FFFFFF;}
</style>
<g>
	<g>
		<polygon class="st0" points="222.4,236.4 213,236.4 213,290.4 235.5,290.4 236.9,282.6 222.4,282.6 		"/>
		<rect x="41.8" y="236.4" class="st0" width="9.4" height="53.6"/>
		<polygon class="st0" points="23.7,258.1 9.4,258.1 9.4,236.4 0,236.4 0,290.4 9.4,290.4 9.4,265.8 23.7,265.8 23.7,290.4 
			33.1,290.4 33.1,236.4 23.7,236.4 		"/>
		<polygon class="st0" points="86,271.6 71.1,236.4 60.8,236.4 60.8,290.4 69.6,290.4 69.6,253.1 86,290.2 86,290.4 94.8,290.4 
			94.8,236.4 86,236.4 		"/>
		<polygon class="st0" points="307.4,271.6 292.6,236.4 282.2,236.4 282.2,290.4 291,290.4 291,253.1 307.4,290.2 307.4,290.4 
			316.3,290.4 316.3,236.4 307.4,236.4 		"/>
		<polygon class="st0" points="100.3,244.2 111.8,244.2 111.8,290.4 121.2,290.4 121.2,244.2 131.8,244.2 133.9,236.4 100.3,236.4 
					"/>
		<polygon class="st0" points="147.9,265.8 162.6,265.8 164.5,258.1 147.9,258.1 148.3,244.2 162.6,244.2 164.5,236.4 138.5,236.4 
			138.5,290.4 163.8,290.4 165.8,282.6 147.9,282.6 		"/>
		<path class="st0" d="M346.1,236.4h-21.6v54h21.6c7.9,0,10.6-4.8,10.6-10.8v-32.3C356.6,241.2,354,236.4,346.1,236.4z M347.4,279.5
			c0,1.6-1.3,3-2.7,3h-11.1v-38.3h11.1c1.5,0,2.7,1.4,2.7,3V279.5z"/>
		<path class="st0" d="M204.8,257.9v-10.7c0-6-2.6-10.8-10.6-10.8h-22v54h9v-21.7h4.6l10.8,21.7h10.1l-11.6-22
			C202,268.4,204.8,263.5,204.8,257.9z M192.8,260.9h-11.6v-16.6h11.6c1.5,0,2.7,1.4,2.7,3v10.6
			C195.5,259.5,194.3,260.9,192.8,260.9z"/>
		<path class="st0" d="M252.3,236.4l-12.1,54h8.5l2.5-12.6h13.1l2.5,12.6h9.9l-11.7-54H252.3z M253.3,270.5l2.2-11.4
			c0.8-5.2,1.7-9.2,2.2-15l0-0.4h0.4c0,0,0,0.3,0,0.4c0.2,3,1.3,10,2.2,15l2.2,11.4H253.3z"/>
	</g>
	<g>
		<path class="st0" d="M270.7,166.6v-1.7h8.7v1.7h-3.3v8.5h-2v-8.5H270.7z M284.1,164.8l2.6,7.3l2.6-7.3h2.9v10.2h-1.9v-8.3
			l-2.8,8.3h-1.6l-2.9-8.3v8.3h-1.9v-10.2H284.1z"/>
	</g>
	<g>
		<g>
			<path class="st0" d="M241.1,184.2c-2.4-1.2-6.1-3.1-10.7-5.4c33.8-21.2,42.4-56.1,42.9-76.1c-1.7,1.5-3.8,3.5-5.7,5.3
				c3.8-17.1,2.6-35.4-4-52.6c-7.9-16.3-20.1-30.1-35.1-40l1.9,8.2c-16.7-15.5-39.2-25-63.6-23.5c-51.9,3.2-90,44.7-84.4,89
				c0.1,1.1,0.4,2.4,0.4,2.4S87.5,78.5,95,72.3c-3,10.6-3.7,17.2-4.2,24.4l16.5,18.4L74.9,96.9l0,53.3c0,9.2,1.6,18,9.1,27l3.4,3.9
				l2.5-8.2l5.5,6.1l2.4-7.8l5.7,5.5l2-6.6c17.9,17.4,41.8,27.4,68.7,27.5c5.4,0,12.4-0.6,19.6-2l-7.8-6.9
				c-4.4,0.8-12.7,0.9-12.7,0.9c-36.4-0.4-74.2-24.1-82.5-59.6c8.6,14.4,25.8,29,44.6,33.8c0.8,0.2,1.6,0.5,2.3,0.7
				c-0.8,1.3-4.2,6.7-4.3,6.9c24.2,15.5,47.5,4,48.4,1.6c3.6,0.1,41.5-1.9,47.8-13c2.6-4.9,1.4-6.9-1.4-7.8
				c-3.6-1.2-12.7-4.4-25-8.6c-2.6-17.3-17.6-22.1-17.6-22.1s0-27.3,0-34.3c-16.2,4.2-22.8,26.4-23.2,27.5
				c-4-13.7-12.3-32.6-21.5-44.9c4.2-4.9,9.3-9,14.8-11.7c-2.3-4-3.8-7.9-4-13.4c3.5,5.3,8,9.9,13.2,13.4c11.5,7.3,27,9.8,36.6,5.2
				c15,11.1,16.5,31.7,16.5,31.7s-1.6,0.7-14.6,4c-13,3.3-10,18.9-10,18.9l7-2.9l0,8.3l6.9-3.1c0,0,0,7.7,0,7.7
				c6.1-2.5,32.4-16,24.7-63.5c-10.1-38.8-38-52.3-55.7-57.1c11.6,0.9,23.2,4.6,33.8,11.1c17.3,10.7,28.8,27.3,33.5,45.5
				c1.2-11.4-1.2-22.4-6.5-31.8c8.1,7.7,14.8,16.9,19.6,27.2c3.6,9.5,5.4,19.8,4.9,30.6c-0.9,20.3-9.8,38.4-23.4,51.4
				c10.5-4.5,18.8-11.8,24.5-21c-19.7,67.7-80.8,60.9-80.9,60.9l50.8,25.8l0-8l7.5,3.8l-0.1-8.5l7.6,3.7
				C247.6,198.2,250.1,188.7,241.1,184.2z M186,145.4c5.2-2.7,7.5,2.7,7.5,2.7s-3.8,0-5.5,0c0.5,0.4,0.8,1.3,0.9,1.9
				c0.1,1.6-1,3.1-3.1,3.1c0,0-9.4-0.1-10.2-0.1C184.9,146.1,184.8,146,186,145.4z M162.8,132.8c-3.1,0.6-17,2.2-24.8-12.5
				c-5,10.3,6,20.3,6,20.3L132.6,151l3.7-9.8c-0.4-0.6-4.7-6.4-5.6-11.6c-2.1-13.3,7-20.2,8.7-21.1
				C142.7,119.9,151.5,129.1,162.8,132.8z"/>
		</g>
	</g>
</g>
</svg>
